<svg xmlns="http://www.w3.org/2000/svg" xmlns:xlink="http://www.w3.org/1999/xlink" version="1.1" x="0px" y="0px" viewBox="0 0 32 40" style="enable-background:new 0 0 32 32;" xml:space="preserve"><g><path d="M4,12.5c0.28,0,0.5-0.22,0.5-0.5V4.5H12c0.28,0,0.5-0.22,0.5-0.5S12.28,3.5,12,3.5H4C3.72,3.5,3.5,3.72,3.5,4v8   C3.5,12.28,3.72,12.5,4,12.5z"/><path d="M12,27.5H4.5V20c0-0.28-0.22-0.5-0.5-0.5S3.5,19.72,3.5,20v8c0,0.28,0.22,0.5,0.5,0.5h8c0.28,0,0.5-0.22,0.5-0.5   S12.28,27.5,12,27.5z"/><path d="M28,19.5c-0.28,0-0.5,0.22-0.5,0.5v7.5H20c-0.28,0-0.5,0.22-0.5,0.5s0.22,0.5,0.5,0.5h8c0.28,0,0.5-0.22,0.5-0.5v-8   C28.5,19.72,28.28,19.5,28,19.5z"/><path d="M28,3.5h-8c-0.28,0-0.5,0.22-0.5,0.5s0.22,0.5,0.5,0.5h7.5V12c0,0.28,0.22,0.5,0.5,0.5s0.5-0.22,0.5-0.5V4   C28.5,3.72,28.28,3.5,28,3.5z"/><path d="M15,5.5H6C5.72,5.5,5.5,5.72,5.5,6v9c0,0.28,0.22,0.5,0.5,0.5h9c0.28,0,0.5-0.22,0.5-0.5V6C15.5,5.72,15.28,5.5,15,5.5z    M13,13.5H8c-0.28,0-0.5-0.22-0.5-0.5V8c0-0.28,0.22-0.5,0.5-0.5S8.5,7.72,8.5,8v4.5H13c0.28,0,0.5,0.22,0.5,0.5   S13.28,13.5,13,13.5z M13.5,11c0,0.28-0.22,0.5-0.5,0.5h-1c-0.28,0-0.5-0.22-0.5-0.5s0.22-0.5,0.5-0.5h0.5v-2h-2V10   c0,0.28-0.22,0.5-0.5,0.5S9.5,10.28,9.5,10V8c0-0.28,0.22-0.5,0.5-0.5h3c0.28,0,0.5,0.22,0.5,0.5V11z"/><path d="M17,15.5h9c0.28,0,0.5-0.22,0.5-0.5V6c0-0.28-0.22-0.5-0.5-0.5h-9c-0.28,0-0.5,0.22-0.5,0.5v9   C16.5,15.28,16.72,15.5,17,15.5z M20.5,8c0-0.28,0.22-0.5,0.5-0.5h3c0.28,0,0.5,0.22,0.5,0.5v3c0,0.28-0.22,0.5-0.5,0.5   s-0.5-0.22-0.5-0.5V8.5h-2V9c0,0.28-0.22,0.5-0.5,0.5S20.5,9.28,20.5,9V8z M22.5,11c0,0.13-0.05,0.26-0.15,0.35   c-0.04,0.05-0.1,0.09-0.16,0.11c-0.06,0.03-0.12,0.04-0.19,0.04c-0.07,0-0.13-0.01-0.19-0.04c-0.06-0.02-0.12-0.06-0.16-0.11   c-0.1-0.09-0.15-0.22-0.15-0.35s0.05-0.26,0.15-0.35c0.18-0.19,0.52-0.19,0.7,0C22.45,10.74,22.5,10.87,22.5,11z M18.5,8   c0-0.28,0.22-0.5,0.5-0.5s0.5,0.22,0.5,0.5v4.5H24c0.28,0,0.5,0.22,0.5,0.5s-0.22,0.5-0.5,0.5h-5c-0.28,0-0.5-0.22-0.5-0.5V8z"/><path d="M15,16.5H6c-0.28,0-0.5,0.22-0.5,0.5v9c0,0.28,0.22,0.5,0.5,0.5h9c0.28,0,0.5-0.22,0.5-0.5v-9   C15.5,16.72,15.28,16.5,15,16.5z M13,24.5H8c-0.28,0-0.5-0.22-0.5-0.5v-5c0-0.28,0.22-0.5,0.5-0.5s0.5,0.22,0.5,0.5v4.5H13   c0.28,0,0.5,0.22,0.5,0.5S13.28,24.5,13,24.5z M9.5,21c0-0.07,0.01-0.13,0.04-0.19c0.02-0.06,0.06-0.12,0.11-0.16   c0.14-0.14,0.35-0.19,0.54-0.11c0.06,0.02,0.12,0.06,0.16,0.11c0.1,0.09,0.15,0.22,0.15,0.35c0,0.07-0.01,0.13-0.04,0.19   c-0.02,0.06-0.06,0.12-0.11,0.16c-0.09,0.1-0.22,0.15-0.35,0.15c-0.07,0-0.13-0.01-0.19-0.04c-0.06-0.02-0.12-0.06-0.16-0.11   C9.55,21.26,9.5,21.13,9.5,21z M13.5,22c0,0.28-0.22,0.5-0.5,0.5h-1c-0.28,0-0.5-0.22-0.5-0.5s0.22-0.5,0.5-0.5h0.5v-2H10   c-0.28,0-0.5-0.22-0.5-0.5s0.22-0.5,0.5-0.5h3c0.28,0,0.5,0.22,0.5,0.5V22z"/><path d="M26.5,26v-9c0-0.28-0.22-0.5-0.5-0.5h-9c-0.28,0-0.5,0.22-0.5,0.5v9c0,0.28,0.22,0.5,0.5,0.5h9   C26.28,26.5,26.5,26.28,26.5,26z M18.5,19c0-0.28,0.22-0.5,0.5-0.5h3c0.28,0,0.5,0.22,0.5,0.5v1c0,0.28-0.22,0.5-0.5,0.5   s-0.5-0.22-0.5-0.5v-0.5h-2V22c0,0.28-0.22,0.5-0.5,0.5s-0.5-0.22-0.5-0.5V19z M22.5,22c0,0.28-0.22,0.5-0.5,0.5h-1   c-0.28,0-0.5-0.22-0.5-0.5s0.22-0.5,0.5-0.5h1C22.28,21.5,22.5,21.72,22.5,22z M24.5,24c0,0.28-0.22,0.5-0.5,0.5h-5   c-0.28,0-0.5-0.22-0.5-0.5s0.22-0.5,0.5-0.5h4.5V19c0-0.28,0.22-0.5,0.5-0.5s0.5,0.22,0.5,0.5V24z"/></g><text x="0" y="47" fill="#000000" font-size="5px" font-weight="bold" font-family="'Helvetica Neue', Helvetica, Arial-Unicode, Arial, Sans-serif">Created by fahmionline</text><text x="0" y="52" fill="#000000" font-size="5px" font-weight="bold" font-family="'Helvetica Neue', Helvetica, Arial-Unicode, Arial, Sans-serif">from the Noun Project</text></svg>