<svg xmlns="http://www.w3.org/2000/svg" xmlns:xlink="http://www.w3.org/1999/xlink" version="1.1" x="0px" y="0px" viewBox="0 0 64 80" style="enable-background:new 0 0 64 64;" xml:space="preserve"><g><path d="M59.4,43.41l-9.51-2.55l-6.95,6.96l2.54,9.51l9.51,2.54l6.95-6.96L59.4,43.41z M56.42,54.35c-1.09,1.1-2.54,1.65-3.98,1.65   c-1.45,0-2.89-0.55-3.99-1.65c-2.2-2.2-2.2-5.78,0-7.98c2.21-2.2,5.78-2.2,7.98,0C58.62,48.57,58.62,52.15,56.42,54.35z"/><path d="M48.97,40.33l-6.59,6.58L17.36,21.89c-0.13-0.14-0.34-0.2-0.53-0.13c-4.07,1.37-8.47,0.35-11.5-2.67   C2.36,16.09,1.32,11.73,2.6,7.75l5.53,5.53c0.61,0.6,1.55,0.6,2.15,0l5.07-5.07c0.6-0.6,0.6-1.54,0-2.14L9.81,0.54   c3.98-1.28,8.36-0.25,11.34,2.74c3.02,3.02,4.05,7.43,2.67,11.51c-0.06,0.19-0.01,0.39,0.12,0.53L48.97,40.33z"/><path d="M59.31,10l-4.96,5.57l-7.28-6.74l4.85-5.44c0.11-0.13,0.28-0.21,0.46-0.22c0.19-0.02,0.36,0.04,0.5,0.17l6.38,5.7   C59.54,9.29,59.56,9.73,59.31,10z"/><polygon points="53.66,16.34 40.83,30.72 33.8,23.69 46.38,9.6  "/><polygon points="33.24,39.22 16.2,58.31 8.8,51.71 26.21,32.19  "/><polygon points="15.29,58.88 3.49,64 8.26,52.6  "/><path d="M57.04,50.36c0,1.23-0.47,2.38-1.34,3.25c-0.88,0.88-2.03,1.35-3.26,1.35s-2.38-0.47-3.26-1.35   c-0.87-0.87-1.35-2.02-1.35-3.25c0-1.24,0.49-2.39,1.35-3.26c0.88-0.87,2.03-1.35,3.26-1.35s2.38,0.49,3.26,1.35   C56.57,47.97,57.04,49.13,57.04,50.36z"/></g><text x="0" y="79" fill="#000000" font-size="5px" font-weight="bold" font-family="'Helvetica Neue', Helvetica, Arial-Unicode, Arial, Sans-serif"></text><text x="0" y="84" fill="#000000" font-size="5px" font-weight="bold" font-family="'Helvetica Neue', Helvetica, Arial-Unicode, Arial, Sans-serif"></text></svg>