<svg xmlns="http://www.w3.org/2000/svg" data-name="Layer 1" viewBox="0 0 96 120" x="0px" y="0px"><path d="M32.709,65.137l-4.6-12.648a1.159,1.159,0,1,1,2.179-.793l4.6,12.647ZM10.994,50.569a6.394,6.394,0,1,0,4.373,12.016l4.649-1.692L15.642,48.877Zm6.849-2.618L22.3,60.2c1.923-.455,3.787-.846,5.643-1.186l-2.077-5.7a3.544,3.544,0,1,1,6.661-2.425L35.1,57.957a130.543,130.543,0,0,1,22.863-.276L46.784,26.961C37.87,35.538,29.672,42.149,17.843,47.951ZM51.924,23.134A1.878,1.878,0,1,0,48.4,24.418L60.828,58.576a1.878,1.878,0,0,0,3.529-1.284ZM36.808,66.182l-4.39,1.6,6.556,18.069a1.2,1.2,0,0,1,.094.2,2.326,2.326,0,0,0,4.371-1.591Zm20.8-34.4,5.341,14.674a8.548,8.548,0,0,0-5.341-14.674ZM89.217,52.571a10.2,10.2,0,1,1-10.2-10.2A10.215,10.215,0,0,1,89.217,52.571Zm-6.788,1.364c-.271-1.507-1.6-2.567-3.559-2.835-.234-.032-.642-.132-.751-.446a.5.5,0,0,1,.114-.5,1.191,1.191,0,0,1,.884-.3,1.27,1.27,0,0,1,.951.484,1.192,1.192,0,1,0,1.851-1.5,3.658,3.658,0,0,0-1.714-1.186V47.1a1.192,1.192,0,1,0-2.384,0v.582a3.358,3.358,0,0,0-1.3.814,2.861,2.861,0,0,0-.658,2.939,3.166,3.166,0,0,0,2.681,2.032c.87.119,1.459.462,1.537.895a.729.729,0,0,1-.4.746,1.635,1.635,0,0,1-1.362.068.717.717,0,0,1-.435-.392,1.192,1.192,0,1,0-2.292.655,3.053,3.053,0,0,0,1.8,1.934,4.062,4.062,0,0,0,.426.15v.526a1.192,1.192,0,1,0,2.384,0v-.579a3.879,3.879,0,0,0,.608-.261A3.1,3.1,0,0,0,82.429,53.935ZM60.271,18.626a10.2,10.2,0,1,1,10.2,10.2A10.215,10.215,0,0,1,60.271,18.626Zm10.876,2.533a1.638,1.638,0,0,1-1.363.068.715.715,0,0,1-.434-.392,1.192,1.192,0,1,0-2.293.655,3.051,3.051,0,0,0,1.8,1.933,3.651,3.651,0,0,0,.426.15V24.1a1.193,1.193,0,0,0,2.385,0v-.579a3.962,3.962,0,0,0,.608-.261,3.1,3.1,0,0,0,1.615-3.271c-.271-1.506-1.6-2.566-3.559-2.834-.234-.032-.642-.132-.751-.446a.5.5,0,0,1,.114-.5,1.2,1.2,0,0,1,.884-.3,1.27,1.27,0,0,1,.951.484,1.192,1.192,0,0,0,1.851-1.5A3.66,3.66,0,0,0,71.667,13.7v-.551a1.193,1.193,0,1,0-2.385,0v.581a3.372,3.372,0,0,0-1.3.815,2.86,2.86,0,0,0-.658,2.939,3.166,3.166,0,0,0,2.681,2.032c.87.119,1.459.462,1.537.895A.73.73,0,0,1,71.147,21.159Z"/><text x="0" y="111" fill="#000000" font-size="5px" font-weight="bold" font-family="'Helvetica Neue', Helvetica, Arial-Unicode, Arial, Sans-serif"></text><text x="0" y="116" fill="#000000" font-size="5px" font-weight="bold" font-family="'Helvetica Neue', Helvetica, Arial-Unicode, Arial, Sans-serif"></text></svg>