<svg xmlns="http://www.w3.org/2000/svg" xmlns:xlink="http://www.w3.org/1999/xlink" version="1.1" x="0px" y="0px" viewBox="0 0 98 122.5" enable-background="new 0 0 98 98" xml:space="preserve"><g><path d="M48.1115,25.015c-0.1946-0.6544-0.4252-1.3068-0.6844-1.9391l-1.8129,0.7443c0.2349,0.5716,0.4434,1.1618,0.6194,1.7535   L48.1115,25.015z"/><path d="M41.5035,17.667c0.4396,0.4396,0.8605,0.9036,1.2518,1.3795l1.5134-1.2446c-0.4315-0.5247-0.8959-1.0361-1.3799-1.5201   L41.5035,17.667z"/><path d="M43.8664,20.5412c0.3444,0.5147,0.6663,1.0514,0.9557,1.5957l1.7296-0.9213c-0.3204-0.6017-0.6763-1.1953-1.0571-1.764   L43.8664,20.5412z"/><path d="M82.4665,15.914c0.4937,0.3693,0.9758,0.7687,1.433,1.1872l1.3231-1.4445c-0.5046-0.4621-1.037-0.9036-1.5823-1.3116   L82.4665,15.914z"/><path d="M85.2097,18.4256c0.4152,0.463,0.8103,0.949,1.1733,1.4445l1.5804-1.1575c-0.4013-0.5477-0.8371-1.0844-1.2958-1.5957   L85.2097,18.4256z"/><path d="M88.9712,24.7959c0.1187,0.343,0.2272,0.6902,0.3262,1.0403l1.8856-0.5338c-0.1096-0.3865-0.2296-0.7692-0.3607-1.1475   L88.9712,24.7959z"/><path d="M88.2753,23.0716l1.7774-0.8246c-0.288-0.6204-0.6099-1.2326-0.9566-1.8195l-1.6866,0.9968   C87.7233,21.9557,88.0145,22.5096,88.2753,23.0716z"/><path d="M63.874,3.2824V8.445h14.6353V3.2824C78.5092,2.0188,77.4905,1,76.2366,1H66.1564C64.9026,1,63.874,2.0188,63.874,3.2824z"/><path d="M76.8145,10.4041H65.5687v4.6825C57.524,17.9164,53.8169,26.0672,54.2076,31.48h33.975   c0.4438-5.7357-3.7086-13.6805-11.3682-16.3934V10.4041z"/><path d="M54.3833,60.6806h33.6171c-0.1991-3.8404-1.5585-7.4503-3.7996-10.3674c-1.6163-2.0964-1.9396-4.8882-0.8817-7.2295   c0.1531-0.2883,3.4813-6.4591,4.4886-9.6445h-33.23c1.0148,3.1852,4.3408,9.3515,4.4669,9.5858   c1.1051,2.4158,0.7382,5.2351-0.8424,7.2883C55.9131,53.2961,54.5837,56.9433,54.3833,60.6806z"/><path d="M54.3424,90.9178c0.1979,6.2617,8.3314,8.2969,11.5593,3.1837c2.4368,3.86,8.1414,3.866,10.5895,0.0098   c3.2218,5.0751,11.3691,3.1072,11.5496-3.2229V62.6398H54.3424V90.9178z"/><rect x="6.817" y="78.6951" width="1.9592" height="1.9592"/><rect x="6.817" y="66.9398" width="1.9592" height="1.9592"/><rect x="6.817" y="70.8583" width="1.9592" height="1.9592"/><rect x="6.817" y="82.6136" width="1.9592" height="1.9592"/><rect x="6.817" y="74.7767" width="1.9592" height="1.9592"/><rect x="49.8541" y="82.6136" width="1.9592" height="1.9592"/><rect x="49.8541" y="74.7767" width="1.9592" height="1.9592"/><rect x="49.8541" y="78.6951" width="1.9592" height="1.9592"/><rect x="49.8541" y="70.8583" width="1.9592" height="1.9592"/><rect x="49.8541" y="66.9398" width="1.9592" height="1.9592"/><path d="M35.5194,3.2824C35.5194,2.0188,34.5006,1,33.2468,1H23.1666c-1.2538,0-2.2825,1.0188-2.2825,2.2825V8.445h14.6353V3.2824z   "/><path d="M11.2178,31.48h33.975c0.4438-5.7357-3.7086-13.6805-11.3682-16.3934v-4.6825H22.5789v4.6825   C14.5342,17.9164,10.827,26.0672,11.2178,31.48z"/><path d="M11.3934,60.6806h33.6171c-0.1991-3.8404-1.5585-7.4503-3.7997-10.3674c-1.6163-2.0964-1.9396-4.8882-0.8816-7.2295   c0.1531-0.2883,3.4813-6.4591,4.4886-9.6445h-33.23c1.0148,3.1852,4.3408,9.3515,4.4669,9.5858   c1.1051,2.4158,0.7382,5.2351-0.8425,7.2883C12.9233,53.2961,11.5939,56.9433,11.3934,60.6806z"/><path d="M33.5014,94.1112c3.2219,5.0751,11.3692,3.1072,11.5496-3.2229V62.6398H11.3526v28.278   c0.1979,6.2617,8.3314,8.2969,11.5593,3.1837C25.3487,97.9615,31.0533,97.9675,33.5014,94.1112z"/></g><text x="0" y="113" fill="#000000" font-size="5px" font-weight="bold" font-family="'Helvetica Neue', Helvetica, Arial-Unicode, Arial, Sans-serif"></text><text x="0" y="118" fill="#000000" font-size="5px" font-weight="bold" font-family="'Helvetica Neue', Helvetica, Arial-Unicode, Arial, Sans-serif"></text></svg>