<svg xmlns="http://www.w3.org/2000/svg" xmlns:xlink="http://www.w3.org/1999/xlink" version="1.1" x="0px" y="0px" viewBox="0 0 100 125" enable-background="new 0 0 100 100" xml:space="preserve"><g><polygon points="57.06,15.444 57.056,15.446 57.054,15.449  "/><path d="M64.627,79.381L64.627,79.381c-0.1-0.27-0.21-0.514-0.321-0.748c0.33-0.611,0.552-1.313,0.557-2.066v-0.004   c0-0.045-0.001-0.078-0.001-0.109h0.001l0,0l0,0c-0.002-0.879,0.007-1.699-0.125-2.549c-0.106-0.695-0.322-1.402-0.699-2.115   c0.208-0.457,0.357-0.945,0.462-1.459c0.145-0.711,0.204-1.467,0.204-2.244c-0.001-1.441-0.207-2.955-0.526-4.344   c-0.321-1.391-0.75-2.65-1.234-3.607c-0.251-0.498-0.339-0.926-0.34-1.359c-0.002-0.594,0.186-1.229,0.495-1.932   c0.307-0.705,0.725-1.463,1.1-2.299l0.004-0.006c0.071-0.168,0.106-0.311,0.142-0.471c0.056-0.273,0.096-0.586,0.127-0.959   c0.098-1.109,0.128-2.742,0.129-4.643c-0.001-2.41-0.054-5.234-0.107-7.846c-0.054-2.609-0.108-5.008-0.113-6.541   c-0.005-2.262-0.146-4.312-0.618-6.305c-0.471-1.993-1.279-3.918-2.573-5.898c-1.408-2.156-3.085-4.156-4.888-5.966   c0.01-0.005,0.018-0.01,0.027-0.014c0.199-0.104,0.451-0.215,0.729-0.45c0.206-0.175,0.384-0.373,0.514-0.609   c0.132-0.236,0.212-0.515,0.21-0.79c0-0.201-0.04-0.395-0.106-0.564c-0.052-0.138-0.12-0.259-0.196-0.369l0.009-0.586   c0.008-0.705,0.045-1.477,0.045-2.272c0-1.05-0.061-2.147-0.371-3.213l-0.003-0.007c-0.067-0.228-0.181-0.438-0.319-0.612   c-0.246-0.307-0.551-0.506-0.855-0.649c-0.462-0.212-0.95-0.313-1.449-0.376c-0.498-0.062-1.007-0.079-1.488-0.079   c-0.412,0-0.804,0.013-1.144,0.026c-0.075,0.002-0.149,0.005-0.22,0.008l-0.672,0.002c-0.147,0-0.295,0-0.443,0   c-0.297,0-0.594,0-0.891,0h-0.446h-0.021l-0.019,0c-0.058,0.002-0.128,0.003-0.205,0.003c-0.474,0.001-1.235-0.05-2.031-0.05   c-0.577,0-1.177,0.025-1.754,0.133c-0.287,0.055-0.571,0.13-0.848,0.246c-0.275,0.116-0.55,0.274-0.789,0.506l-0.008,0.007   l-0.001,0.001c-0.229,0.229-0.39,0.492-0.509,0.758c-0.178,0.401-0.271,0.82-0.328,1.247c-0.056,0.426-0.074,0.863-0.074,1.292   c0,0.533,0.028,1.056,0.056,1.517c0.027,0.459,0.053,0.863,0.053,1.12v0.006l0.004,0.385l0.006,0.504   c-0.013,0.021-0.028,0.04-0.041,0.062c-0.145,0.252-0.225,0.563-0.223,0.867l0,0v0.02l0.005,0.077h0.001   c0.014,0.333,0.11,0.661,0.275,0.925c0.135,0.216,0.304,0.39,0.479,0.526c0.199,0.152,0.405,0.26,0.608,0.34   c-0.046,0.112-0.099,0.229-0.171,0.357c-0.313,0.553-0.875,1.188-1.47,1.796c-0.298,0.305-0.604,0.607-0.89,0.904   c-0.288,0.297-0.559,0.588-0.791,0.888c-1.712,2.212-2.897,4.37-3.641,6.666c-0.743,2.296-1.045,4.714-1.044,7.442v-0.003   c-0.009,3.623-0.162,11.146-0.162,15.84c0,1.029,0.008,1.924,0.025,2.619c0.01,0.348,0.021,0.646,0.036,0.893   c0.009,0.123,0.018,0.234,0.028,0.336s0.022,0.193,0.044,0.295c0.185,0.854,0.55,1.59,0.897,2.268   c0.351,0.678,0.685,1.295,0.875,1.871c0.08,0.242,0.109,0.443,0.11,0.641c0,0.285-0.065,0.57-0.193,0.912   c-0.126,0.34-0.317,0.727-0.523,1.174c-0.359,0.781-0.563,1.574-0.7,2.35s-0.207,1.535-0.285,2.266   c-0.145,1.336-0.309,2.734-0.31,4.158c0.002,0.158,0.021,0.27,0.043,0.387c0.039,0.197,0.095,0.398,0.156,0.607   c0.092,0.314,0.2,0.646,0.28,0.918c0.026,0.09,0.049,0.168,0.066,0.238c-0.666,1.102-0.991,2.428-0.994,3.748   c0.002,1.086,0.222,2.176,0.72,3.129c-0.729,1.764-1.082,3.67-1.082,5.58c0,1.359,0.177,2.721,0.523,4.035   c0.237,0.896,0.593,1.857,1.147,2.729c0.278,0.436,0.607,0.85,1.001,1.213s0.852,0.678,1.377,0.9   c0.789,0.34,1.687,0.594,2.476,0.773c0.181,0.041,0.403,0.08,0.672,0.125c0.935,0.152,2.418,0.346,3.816,0.502   c0.7,0.076,1.375,0.146,1.949,0.195c0.575,0.051,1.035,0.082,1.362,0.082c0.787,0,1.453,0.004,2.045,0.004   c1.378,0,2.361-0.018,3.463-0.145c1.099-0.125,2.285-0.355,4.098-0.764c1.245-0.281,2.302-0.756,3.171-1.398   c1.307-0.963,2.154-2.291,2.652-3.766c0.501-1.479,0.675-3.111,0.676-4.809v-0.002C65.318,82.355,65.164,80.832,64.627,79.381z    M63.013,76.57L63.013,76.57L63.013,76.57L63.013,76.57z M62.987,76.379L62.987,76.379L62.987,76.379L62.987,76.379z    M62.487,53.781c0,0,0,0.002-0.002,0.004l0.006-0.014L62.487,53.781z M37.734,33.899c0-0.907,0.037-1.764,0.111-2.586   c1.818,0.427,3.665,0.727,5.519,0.947c2.236,0.271,4.49,0.397,6.747,0.41c1.13-0.01,2.259-0.042,3.384-0.11   c1.125-0.083,2.248-0.169,3.365-0.318c1.862-0.233,3.715-0.551,5.537-1.002c0.073,0.9,0.105,1.839,0.107,2.845   c0.004,1.568,0.06,3.965,0.113,6.574c0.055,2.607,0.107,5.424,0.106,7.807c0,0.08,0,0.158,0,0.238   c-1.986,0.164-3.964,0.314-5.938,0.434c-1.114,0.053-2.225,0.128-3.339,0.152c-1.112,0.041-2.223,0.067-3.335,0.059   c-1.11,0.01-2.224-0.017-3.337-0.051c-1.113-0.023-2.225-0.089-3.34-0.137c-1.949-0.104-3.9-0.234-5.861-0.373   c0.019-4.678,0.152-11.47,0.16-14.888V33.899z M55.931,13.928L55.931,13.928L55.931,13.928L55.931,13.928z M45.857,7.238   c0.329-0.04,0.708-0.054,1.096-0.053c0.719-0.001,1.448,0.049,2.031,0.05c0.083,0,0.165-0.002,0.244-0.004l0,0h0.446   c0.132,0,0.266,0,0.398,0v0.007l0.932,0.007l0.088,0c0.249,0,0.545-0.013,0.878-0.026c0.333-0.012,0.7-0.024,1.073-0.024   c0.66-0.001,1.343,0.043,1.801,0.162c0.229,0.057,0.395,0.132,0.467,0.184c0.034,0.023,0.048,0.038,0.052,0.043   c0.229,0.783,0.295,1.705,0.294,2.672c0,0.476-0.014,0.961-0.027,1.447l-0.442,0.812l-2.132,0.061   c-0.987,0.033-1.976,0.051-2.963,0.051c-0.986,0-1.975-0.018-2.963-0.047c-0.109-0.004-1.944-0.092-2.054-0.096l-0.465-0.78   c-0.012-0.25-0.025-0.513-0.043-0.798c-0.026-0.453-0.052-0.94-0.052-1.406C44.516,9,44.548,8.524,44.624,8.163   c0.036-0.181,0.084-0.331,0.132-0.438c0.046-0.103,0.089-0.161,0.117-0.19c0.026-0.025,0.089-0.072,0.202-0.118   C45.249,7.343,45.528,7.275,45.857,7.238z M42.027,20.939c0.209-0.271,0.548-0.626,0.934-1.016   c0.579-0.588,1.266-1.258,1.837-2.006c0.285-0.375,0.544-0.772,0.741-1.207c0.195-0.433,0.33-0.91,0.33-1.422   c0-0.072-0.002-0.146-0.009-0.224l-0.063-0.791l-0.79-0.069c-0.224-0.016-0.476-0.092-0.574-0.16l-0.047-0.035   c0.018-0.01,0.034-0.02,0.06-0.032c0.105-0.051,0.271-0.109,0.463-0.176c0.097-0.034,0.202-0.071,0.315-0.122   c0.115-0.051,0.24-0.112,0.383-0.217l0.24-0.18l1.26,0.044c0.994,0.031,1.989,0.048,2.985,0.048c0.997,0,1.993-0.019,2.988-0.052   l1.201-0.048l0.833,0.515c0.069,0.007,0.189,0.034,0.31,0.078c0.136,0.048,0.272,0.119,0.369,0.185   c-0.032,0.022-0.085,0.054-0.155,0.09c-0.177,0.095-0.432,0.201-0.72,0.399c-0.143,0.102-0.302,0.232-0.446,0.437   c-0.144,0.201-0.255,0.496-0.251,0.794c0,0.309,0.101,0.583,0.233,0.813c0.134,0.231,0.304,0.435,0.514,0.645l-0.002-0.003   c1.728,1.732,3.322,3.641,4.65,5.673c1.188,1.818,1.895,3.514,2.32,5.306c0.214,0.906,0.355,1.841,0.444,2.827   c-1.871,0.123-3.736,0.239-5.597,0.334c-1.114,0.044-2.226,0.109-3.339,0.129c-1.112,0.035-2.224,0.059-3.335,0.049   c-1.11,0.01-2.223-0.013-3.336-0.043c-1.113-0.018-2.225-0.077-3.34-0.114c-1.854-0.083-3.709-0.184-5.572-0.287   c0.143-1.448,0.409-2.784,0.824-4.067C39.359,24.968,40.419,23.02,42.027,20.939z M61.729,90.08   c-0.748,0.865-1.774,1.514-3.319,1.865c-1.79,0.404-2.908,0.619-3.898,0.732c-0.989,0.113-1.88,0.131-3.249,0.131   c-0.584,0-1.254-0.002-2.045-0.002c-0.114,0-0.315-0.01-0.563-0.025c-0.875-0.059-2.354-0.213-3.725-0.381   c-0.687-0.084-1.349-0.172-1.898-0.252c-0.548-0.08-0.995-0.154-1.2-0.203c-0.708-0.158-1.525-0.395-2.149-0.664   c-0.311-0.133-0.589-0.32-0.845-0.557c-0.383-0.354-0.712-0.82-0.98-1.352c-0.269-0.529-0.477-1.119-0.628-1.691   c-0.305-1.158-0.46-2.359-0.46-3.557c0-1.826,0.363-3.637,1.104-5.256l0.214-0.469l-0.282-0.432   c-0.436-0.662-0.676-1.592-0.674-2.553c-0.004-1.104,0.318-2.23,0.854-2.986l0.003-0.004c0.106-0.156,0.139-0.283,0.159-0.377   c0.019-0.096,0.022-0.168,0.022-0.23c-0.002-0.164-0.022-0.268-0.045-0.379c-0.039-0.189-0.095-0.381-0.156-0.586   c-0.091-0.305-0.197-0.635-0.277-0.908c-0.039-0.137-0.072-0.26-0.092-0.346c-0.01-0.043-0.017-0.078-0.019-0.098L37.577,69.5   c0.001-1.271,0.153-2.6,0.298-3.939c0.081-0.748,0.149-1.467,0.27-2.141c0.118-0.676,0.287-1.305,0.557-1.893   c0.189-0.414,0.399-0.834,0.575-1.299c0.175-0.465,0.313-0.988,0.312-1.57c0.001-0.396-0.063-0.813-0.206-1.236   c-0.267-0.793-0.654-1.486-0.986-2.135c-0.336-0.646-0.614-1.244-0.73-1.799l-0.001-0.008c-0.008-0.039-0.025-0.199-0.037-0.412   c-0.038-0.652-0.055-1.852-0.054-3.332c0-0.254,0-0.516,0.001-0.785c1.9,0.49,3.837,0.833,5.783,1.082   c2.237,0.289,4.494,0.428,6.755,0.44c1.132-0.009,2.263-0.045,3.39-0.119c1.126-0.088,2.251-0.183,3.368-0.342   c1.973-0.266,3.935-0.623,5.854-1.149c-0.003,1.268-0.022,2.398-0.067,3.275c-0.023,0.482-0.056,0.891-0.092,1.189   c-0.019,0.15-0.038,0.271-0.057,0.355c-0.008,0.043-0.016,0.074-0.021,0.094l-0.006,0.016c-0.329,0.736-0.745,1.49-1.101,2.299   c-0.353,0.811-0.651,1.697-0.652,2.684c-0.002,0.713,0.165,1.467,0.545,2.209c0.385,0.756,0.787,1.908,1.078,3.178   c0.292,1.27,0.479,2.664,0.479,3.924c0,0.68-0.056,1.318-0.168,1.873c-0.111,0.555-0.282,1.021-0.492,1.365l-0.302,0.494   l0.309,0.492c0.418,0.668,0.604,1.238,0.709,1.883c0.098,0.615,0.101,1.316,0.101,2.154c0,0.004-0.001,0.006-0.001,0.006   c0,0.002,0.001,0.004,0.001,0.006c0,0.004,0,0.006,0,0.01h-0.001l0,0l0.001,0.01c0,0.033,0,0.092,0,0.188   c0.006,0.459-0.206,1.043-0.519,1.488l-0.317,0.457l0.249,0.496c0.186,0.371,0.35,0.701,0.47,1.025v-0.002   c0.428,1.15,0.577,2.459,0.577,3.771c0,1.045-0.073,2.033-0.246,2.93C62.944,88.084,62.473,89.213,61.729,90.08z"/><path d="M50.098,72.5c-1.777,0.008-3.557-0.063-5.336-0.152c-1.78-0.1-3.561-0.227-5.35-0.369c1.739,0.449,3.517,0.74,5.3,0.949   c1.785,0.211,3.584,0.314,5.386,0.322c1.802-0.006,3.602-0.115,5.386-0.338c1.782-0.221,3.557-0.527,5.291-1.002   c-1.786,0.166-3.566,0.309-5.345,0.42C53.65,72.432,51.873,72.508,50.098,72.5z"/><path d="M50.098,79.623c-1.777,0.006-3.557-0.063-5.336-0.154c-1.78-0.098-3.561-0.225-5.35-0.369   c1.739,0.449,3.517,0.74,5.3,0.949c1.785,0.213,3.584,0.314,5.386,0.324c1.802-0.008,3.602-0.117,5.386-0.34   c1.782-0.221,3.557-0.525,5.291-1.002c-1.786,0.168-3.566,0.309-5.345,0.42C53.65,79.555,51.873,79.629,50.098,79.623z"/><path d="M50.095,16.246c0.652-0.006,1.304-0.051,1.946-0.155c0.642-0.101,1.278-0.243,1.892-0.474   c-1.304,0.003-2.571,0.07-3.838,0.067c-1.269,0.005-2.537-0.054-3.84-0.043c0.615,0.222,1.253,0.359,1.894,0.456   C48.792,16.197,49.442,16.24,50.095,16.246z"/></g><text x="0" y="115" fill="#000000" font-size="5px" font-weight="bold" font-family="'Helvetica Neue', Helvetica, Arial-Unicode, Arial, Sans-serif"></text><text x="0" y="120" fill="#000000" font-size="5px" font-weight="bold" font-family="'Helvetica Neue', Helvetica, Arial-Unicode, Arial, Sans-serif"></text></svg>